<?xml version="1.0" encoding="UTF-8" standalone="no"?>
<!-- Created with Inkscape (http://www.inkscape.org/) -->

<svg
   width="3440"
   height="1440"
   viewBox="0 0 3440 1440"
   version="1.1"
   id="svg1"
   xml:space="preserve"
   sodipodi:docname="wallpaper.svg"
   inkscape:version="1.4 (e7c3feb100, 2024-10-09)"
   xmlns:inkscape="http://www.inkscape.org/namespaces/inkscape"
   xmlns:sodipodi="http://sodipodi.sourceforge.net/DTD/sodipodi-0.dtd"
   xmlns="http://www.w3.org/2000/svg"
   xmlns:svg="http://www.w3.org/2000/svg"><sodipodi:namedview
     id="namedview1"
     pagecolor="#505050"
     bordercolor="#eeeeee"
     borderopacity="1"
     inkscape:showpageshadow="0"
     inkscape:pageopacity="0"
     inkscape:pagecheckerboard="0"
     inkscape:deskcolor="#505050"
     inkscape:document-units="mm"
     inkscape:zoom="0.21756507"
     inkscape:cx="1604.1178"
     inkscape:cy="1321.4437"
     inkscape:window-width="1719"
     inkscape:window-height="1368"
     inkscape:window-x="0"
     inkscape:window-y="0"
     inkscape:window-maximized="0"
     inkscape:current-layer="layer1" /><defs
     id="defs1" /><g
     inkscape:label="Layer 1"
     inkscape:groupmode="layer"
     id="layer1"><rect
       style="fill:#591d39;stroke-width:2.10538;fill-opacity:1"
       id="rect238264"
       width="3440"
       height="1440"
       x="0"
       y="0"
       inkscape:label="shade7" /><path
       style="display:inline;fill:#44162d;fill-opacity:1"
       d="M 0,720 V 0 h 1720 1720 v 166.42765 166.42766 l -9.013,30.5791 -9.0131,30.57909 -8.5469,27.24325 -8.547,27.24325 -9.0767,27.5 -9.0767,27.5 -9.7548,28 -9.7549,28 -8.7267,24 -8.7266,24 -11.3256,29.60086 -11.3256,29.60087 -9.9599,24.89913 -9.9599,24.89914 -11.694,28 -11.694,28 -12.5303,28.49249 -12.5302,28.49249 -10.4878,23.00751 -10.4878,23.00751 -13.358,28.20242 -13.358,28.20241 -20.1526,40.29759 -20.1525,40.29758 -14.5026,27.5 -14.5026,27.5 -15.0424,27.5 -15.0423,27.5 -19.1702,33.5 -19.1702,33.5 -18.3105,30.5 -18.3106,30.5 -14.847,23.766 -14.8471,23.766 -12.6516,19.734 -12.6515,19.734 -19.963,30 -19.9629,30 -14.6365,21.2296 -14.6364,21.2296 -16.809,0.02 -16.809,0.02 0.6993,-1.1315 0.6992,-1.1314 13.0235,-18.6186 13.0234,-18.6185 19.2217,-28.5 19.2217,-28.5 15.9278,-24.5 15.9279,-24.5 17.5226,-28 17.5227,-28 13.0007,-21.5 13.0006,-21.5 14.0311,-24 14.031,-24 12.9933,-23 12.9934,-23 11.4869,-21 11.487,-21 13.5008,-25.5 13.5007,-25.5 13.5718,-26.5 13.5718,-26.5 16.5919,-34.32127 16.5919,-34.32128 11.536,-24.946 11.536,-24.94601 -0.7029,-1.13723 -0.7028,-1.13723 1.0083,0.62315 1.0082,0.62316 1.1837,-2.59787 1.1837,-2.59787 -0.5375,-0.53744 L 3227,829.66667 V 831 v 1.33333 l -0.5235,-0.52354 -0.5236,-0.52353 0.6283,-1.63739 0.6284,-1.63738 0.8837,0.54619 0.8838,0.5462 -0.6585,-1.71599 -0.6585,-1.71598 1.0237,0.63269 1.0237,0.63269 1.1194,-2.4568 1.1194,-2.45679 -0.6431,-1.6759 -0.6431,-1.67589 1.1585,0.71598 1.1585,0.71599 -0.6585,-1.71599 -0.6585,-1.71598 1.3245,0.81855 1.3244,0.81856 -0.6675,-1.08008 -0.6675,-1.08008 4.1276,-9.32443 4.1276,-9.32443 10.3859,-23.91614 10.3859,-23.91615 -0.3343,-0.33433 -0.3343,-0.33433 -6.6007,14.25047 -6.6008,14.25048 -9.4619,21.5 -9.462,21.5 -9.9495,20.5 -9.9496,20.5 -19.1539,37.25 L 3171,936 l -19.1108,37.25 -19.1109,37.25 -13.5441,25.5 -13.5442,25.5 -13.4892,24.5 -13.4892,24.5 -17.3608,30.2982 -17.3609,30.2981 -17.175,28.7019 -17.1751,28.7018 -17.4638,28 -17.4637,28 -15.026,22.5 -15.026,22.5 -16.6661,24 -16.666,24 -18.8039,27 -18.8038,27 -3.0298,4.25 -3.0297,4.25 H 1433.8305 0 Z m 2982.4252,685.25 23.3342,-34.75 13.2813,-20.5 13.2812,-20.5 18.1572,-29 18.1572,-29 16.5364,-27.5 16.5364,-27.5 14.6745,-25.3371 14.6746,-25.3372 14.3247,-25.6628 14.3246,-25.6629 14.0149,-26 14.0149,-26 16.32,-31.5 16.32,-31.5 14.927,-30.5 14.927,-30.5 9.4843,-20 9.4843,-20 13.281,-29 13.281,-29 12.0016,-27.5 12.0015,-27.5 12.7132,-30.5 12.7132,-30.5 12.3054,-31 12.3053,-31 12.0091,-32 12.009,-32 10.6789,-30 10.6789,-30 12.4081,-37 12.4081,-37 v 14.61477 14.61477 l -8.4124,24.88523 -8.4124,24.88523 -10.6735,30 -10.6735,30 -12.0492,32 -12.0493,32 -12.7516,32 -12.7516,32 -11.0035,26.5 -11.0035,26.5 -11.9805,27.5 -11.9804,27.5 -12.4938,27.5 -12.4938,27.5 -10.842,23 -10.842,23 -22.7107,45.61978 -22.7106,45.61982 -11.7153,22.3802 -11.7153,22.3802 -18.5293,34 -18.5293,34 -17.969,31.5 -17.9689,31.5 -22.2059,37 -22.2059,37 -12.6861,20.2817 -12.6862,20.2817 -13.6113,21.2183 -13.6113,21.2183 -20.9949,31.5 -20.9949,31.5 -4.4588,6.25 -4.4589,6.25 h -5.3667 -5.3667 z m 149.1668,32 1.822,-2.75 11.6166,-18 11.6165,-18 17.4961,-28 17.496,-28 18.5435,-31 18.5434,-31 10.993,-19 10.993,-19 13.4897,-24 13.4897,-24 12.5366,-23 12.5365,-23 15.6345,-29.7888 15.6344,-29.7888 18.4695,-36.9283 18.4694,-36.9284 14.6312,-30.78284 14.6312,-30.78286 15.2054,-33.5 15.2054,-33.5 4.4272,-10.27562 4.4272,-10.27562 0.2558,83.75685 0.2557,83.75689 -17.5692,35.5187 -17.5693,35.5188 -15.5727,30 -15.5726,30 -14.0117,26 -14.0116,26 -16.4275,29.343 -16.4276,29.3429 -14.3534,24.753 -14.3534,24.7529 -16.1543,26.9041 -16.1543,26.9041 -19.167,30.7459 -19.1669,30.7458 h -41.865 -41.865 z"
       id="path238264"
       inkscape:label="shade6" /><path
       style="display:inline;fill:#311023;fill-opacity:1"
       d="M 0,720 V 0 H 1497.5 2995 V 0.54099033 1.0819807 l -7.1068,30.7090093 -7.1067,30.70901 -7.8527,31.163057 -7.8526,31.163053 -8.982,32.83695 -8.982,32.83694 -8.6066,29 -8.6065,29 -5.0139,16 -5.0138,16 -11.0333,33.5 -11.0333,33.5 -9.4807,27 -9.4807,27 -12.5434,33.5 -12.5434,33.5 -14.2607,35.5 -14.2608,35.5 -13.5154,31.5 -13.5154,31.5 -12.2137,27 -12.2138,27 -13.9202,29.31597 -13.9202,29.31597 -13.0971,26.18403 -13.0971,26.18403 -12.002,23 -12.0021,23 -15.5108,28.44867 -15.5108,28.44866 -11.9843,21.05134 -11.9844,21.05133 -13.5287,23 -13.5286,23 -15.0254,24.5 -15.0254,24.5 -14.9763,23.5 -14.9762,23.5 -19.9071,29.8641 -19.907,29.8641 -13.6329,19.6359 -13.6329,19.6359 -16.4676,23 -16.4677,23 -20.198,27 -20.198,27 -14.7815,19 -14.7814,19 -17.609,21.9505 -17.6091,21.9505 -16.1056,19.3311 -16.1055,19.3311 -3.8778,5.7184 -3.8778,5.7184 -8.308,11.5 -8.308,11.5 2.7914,-3.1132 2.7913,-3.1131 18.5356,-21.8869 18.5356,-21.8868 13.536,-16.5 13.5359,-16.5 11.7844,-14.75 11.7843,-14.75 h 0.4781 0.4782 l -2.8906,3.75 -2.8905,3.75 -3.9287,5.4544 -3.9287,5.4543 1.1441,-0.707 1.1441,-0.7071 15.9001,-20.2473 15.9,-20.2473 13.0225,-17.0111 13.0225,-17.0111 12.9726,-17.4889 12.9726,-17.4889 16.5021,-23 16.5021,-23 13.8148,-19.8977 13.8149,-19.8978 19.7215,-29.6022 19.7216,-29.6023 14.985,-23.5 14.985,-23.5 13.5281,-22 13.5281,-22 14.7944,-25 14.7944,-25 12.2101,-21.5 12.2102,-21.5 11.0034,-20.02177 11.0033,-20.02176 14.51,-27.47824 14.51,-27.47823 17.4993,-35 17.4993,-35 12.7199,-26.93684 12.72,-26.93683 9.5359,-21.06317 9.5359,-21.06316 6.9885,-16 6.9885,-16 10.9766,-26 10.9766,-26 9.0155,-22.5 9.0155,-22.5 8.4748,-22 8.4747,-22 8.8332,-24 8.8332,-24 7.6942,-22 7.6943,-22 8.9557,-27 8.9558,-27 9.5012,-30.5 9.5012,-30.5 9.3803,-32.5 9.3804,-32.5 7.6185,-28.5 7.6186,-28.5 6.3258,-25.5 6.3257,-25.5 5.5342,-24 5.5342,-24 1.2728,-6.25 1.2728,-6.25 h 37.6913 37.6913 l -1.9314,8.75 -1.9314,8.75 -6.5777,29 -6.5777,29 -8.7903,35 -8.7903,35 -9.0739,33.10945 -9.0738,33.10944 -8.5647,28.89056 -8.5646,28.89055 -7.0201,22.5 -7.02,22.5 -12.3426,37 -12.3427,37 -11.6942,32.5 -11.6943,32.5 -12.4766,32.5 -12.4765,32.5 -8.5145,21 -8.5145,21 -10.3199,24.54053 -10.3199,24.54054 -11.4677,25.95946 -11.4677,25.95947 -9.0011,19.5 -9.0011,19.5 -8.59,18.22397 -8.59,18.22397 -19.6365,39.27603 -19.6365,39.27603 -10.5245,20 -10.5245,20 -12.4963,23 -12.4963,23 -13.206,23.5 -13.2061,23.5 -7.6123,14 -7.6123,14 -2.2078,5 -2.2079,5 -5.1861,9.5 -5.1861,9.5 -8.7635,16.4026 -8.7636,16.4025 -16.5792,26.0975 -16.5793,26.0974 -10.6196,17.5 -10.6196,17.5 -15.3077,25 -15.3077,25 -0.4461,0.75 -0.4461,0.75 h 0.4733 0.4733 l 22.3357,-33.1069 22.3357,-33.1068 9.2955,-14.1432 9.2955,-14.1431 17.8089,-28.5 17.8088,-28.5 11.9991,-20 11.999,-20 12.4945,-21.5 12.4945,-21.5 11.5292,-20.5 11.5293,-20.5 12.9824,-24 12.9824,-24 12.2842,-23.5 12.2842,-23.5 15.1397,-30.5 15.1396,-30.5 11.6179,-24.5 11.6179,-24.5 12.704,-28 12.704,-28 14.7608,-34.5 14.7609,-34.5 13.3336,-33.21694 13.3336,-33.21694 0.3563,0.35631 0.3563,0.3563 -4.4422,11.86064 -4.4422,11.86063 -10.6875,26 -10.6875,26 -12.0296,30 -12.0295,30 -8.9358,20.87768 -8.9358,20.87768 0.3536,0.35357 0.3536,0.35357 4.8333,-10.73125 4.8333,-10.73125 11.4548,-26 11.4547,-26 11.5092,-27.5 11.5091,-27.5 12.2795,-31 12.2794,-31 11.0217,-29.5 11.0217,-29.5 9.6733,-27.5 9.6734,-27.5 9.3157,-28 9.3157,-28 9.0522,-29 9.0522,-29 7.5051,-25.5 7.5051,-25.5 8.0905,-29.5 8.0904,-29.5 7.4131,-29 7.4131,-29 6.4706,-27.5 6.4707,-27.5 4.5665,-20.688574 L 3092,1.1228518 V 0.56142589 0 h 22.6084 22.6084 l -0.5636,2.25 -0.5636,2.25 -3.0805,14.5 -3.0805,14.5 -6.5668,28.5 -6.5667,28.5 -6.8304,27.5 -6.8305,27.5 -7.6279,28.5 -7.6279,28.5 -7.0083,24.5 -7.0083,24.5 -6.0012,20 -6.0012,20 -7.8825,25 -7.8824,25 -11.4249,34 -11.4248,34 -6.7051,19 -6.7052,19 -10.8326,29 -10.8325,29 -10.1089,25.80495 -10.1088,25.80495 -10.3859,25.19505 -10.3859,25.19505 -10.9959,25.5 -10.9959,25.5 -9.4403,21 -9.4403,21 -11.8732,25.5 -11.8732,25.5 -16.6846,33.62661 -16.6846,33.62662 -5.0472,11.99923 -5.0472,11.99923 -11.4358,22.87416 -11.4358,22.87415 -0.7285,2.40169 -0.7285,2.40169 -3.7333,8.09831 -3.7333,8.09831 -10.7895,19.5 -10.7894,19.5 -15.4979,27 -15.4978,27 -14.0316,23.5 -14.0316,23.5 -16.4269,26.4309 -16.4269,26.4308 -15.5627,24.0692 -15.5628,24.0691 -9.6495,14.5 -9.6495,14.5 -4.816,8.5 -4.816,8.5 -2.0371,3.5 -2.0372,3.5 1.0057,-1 1.0057,-1 7.3075,-10.75 7.3074,-10.75 h 0.4285 0.4284 l -1.9864,3.25 -1.9863,3.25 -9.7231,17 -9.7231,17 -3.0677,4.5 -3.0677,4.5 -13.5176,19 -13.5176,19 -12.4299,20 -12.4299,20 -1.4719,2.25 -1.4719,2.25 h 0.5491 0.5491 l 5.6915,-7.75 5.6915,-7.75 -0.6151,1.8043 -0.615,1.8043 -12.3458,18.6957 -12.3457,18.6957 -10.8235,16.5 -10.8235,16.5 -1.9094,2.75 -1.9094,2.75 h 0.4973 0.4973 l 14.3892,-18.75 14.3893,-18.75 10.4959,-14 10.496,-14 18.5128,-25.5 18.5128,-25.5 14.3382,-20.5 14.3382,-20.5 19.2184,-28.5 19.2184,-28.5 13.2745,-20.5 13.2744,-20.5 15.9175,-25.385 15.9174,-25.3851 17.7597,-29.6149 17.7597,-29.615 17.9956,-31.5 17.9957,-31.5 13.0785,-24 13.0785,-24 11.128,-21 11.128,-21 20.2659,-40.5 20.2659,-40.5 11.1524,-23.55167 11.1524,-23.55166 11.1285,-24.44834 11.1286,-24.44833 11.3669,-26.14159 11.3668,-26.14158 10.0682,-24.1466 10.0682,-24.14659 8.0802,-20.21182 8.0802,-20.21182 9.7839,-25.5 9.7839,-25.5 8.7404,-24 8.7403,-24 10.4143,-29.98185 10.4142,-29.98186 10.0231,-31.01814 10.0231,-31.01815 9.3835,-31 9.3835,-31 7.5101,-26.5 7.5101,-26.5 7.0751,-26.5 7.0752,-26.5 7.4167,-30 7.4166,-30 5.5816,-24.271151 5.5817,-24.271151 3.9775,-18.728849 L 3161.0116,4.5 3161.5248,2.25 3162.0381,0 h 27.0922 27.0923 l -0.6731,3.75 -0.673,3.75 -5.5093,25.5 -5.5094,25.5 -5.5217,24 -5.5218,24 -8.9007,35.55793 -8.9007,35.55792 -9.4038,34.45819 -9.4038,34.45819 -8.6869,29.48389 -8.687,29.48388 -7.9634,25.5 -7.9635,25.5 -12.3557,37 -12.3557,37 -8.1892,23 -8.1892,23 -10.8114,29 -10.8114,29 -9.0054,23 -9.0054,23 -9.19,22.5 -9.19,22.5 -6.7849,16 -6.7849,16 -10.2374,23.5 -10.2374,23.5 -13.2814,29 -13.2814,29 -13.196,27.5 -13.1959,27.5 -15.3723,30.5 -15.3722,30.5 -12.1186,23 -12.1186,23 -12.5388,23 -12.5389,23 -18.5129,32.5 -18.5129,32.5 -19.2031,32 -19.203,32 -15.9934,25.5 -15.9935,25.5 -14.2826,22 -14.2827,22 -17.5294,26 -17.5294,26 -17.5581,25 -17.5581,25 -17.4562,24 -17.4561,24 -16.2076,21.5 -16.2075,21.5 -14.3976,18.5 -14.3975,18.5 -5.9804,7.7056 -5.9804,7.7055 -1271.25,0.044 L 0,1440 Z m 2634.1082,710.75 7.1714,-9.25 10.4964,-14 10.4965,-14 1.4806,-1.5 1.4805,-1.5 -1.0714,2 -1.0715,2 -6.1012,9 -6.1012,9 -9.1388,13.75 -9.1388,13.75 h -2.8369 -2.8369 z M 3250.1525,38 l -0.036,-1.5 3.7628,-18 3.7627,-18 2.1788,-0.31955095 2.1788,-0.31955096 -0.026,1.31955091 -0.026,1.319551 -3.3827,13 -3.3827,13 -0.075,-1.5 -0.075,-1.5 1.4488,-6 1.4488,-6 -0.058,-1.5 -0.058,-1.5 -3.812,14.5 -3.812,14.5 z"
       id="path238263"
       inkscape:label="shade5" /><path
       style="display:inline;fill:#240d1d;fill-opacity:1"
       d="M 0,720 V 0 h 1168.4686 1168.4686 l -0.4175,1.25 -0.4175,1.25 -6.5314,22.667283 -6.5313,22.667283 -6.6094,21.332717 -6.6095,21.332717 -6.5254,20 -6.5254,20 -9.4743,27 -9.4743,27 -10.5065,28 -10.5065,28 -11.2971,28 -11.2971,28 -10.512,24.5 -10.5121,24.5 -9.9895,22 -9.9894,22 -9.6093,20.26423 -9.6093,20.26423 -14.3934,28.7737 -14.3935,28.7737 -12.7279,23.96207 -12.7279,23.96207 -12.5451,22.5 -12.545,22.5 -13.4746,23 -13.4745,23 -12.5186,20.5 -12.5185,20.5 -15.045,23.5 -15.0451,23.5 -15.4442,23 -15.4443,23 -14.009,20 -14.009,20 -17.564,23.98178 -17.5641,23.98177 -16.9491,22.01823 -16.949,22.01822 -19.7182,24.5 -19.7182,24.5 -18.1936,21.5 -18.1937,21.5 -17.6499,20 -17.65,20 -16.5135,17.9214 -16.5135,17.9215 -11.1884,13.0785 -11.1884,13.0786 -4.6392,5.1729 -4.6392,5.1729 1.6,-0.2348 1.6001,-0.2349 14.8678,-15.6518 14.8678,-15.6518 16.4101,-17.7862 16.4102,-17.7863 16.6761,-18.8055 16.6762,-18.80559 15.8567,-18.69446 15.8567,-18.69445 14.4229,-17.5 14.423,-17.5 16.7071,-21.16491 16.7071,-21.16492 20.1129,-26.7724 20.113,-26.77241 16.7381,-23.56268 16.738,-23.56268 13.5573,-19.5 13.5572,-19.5 15.2478,-23.43008 15.2477,-23.43008 12.557,-20.06992 12.5569,-20.06992 13.1715,-22 13.1716,-22 12.0136,-21 12.0136,-21 11.5084,-21 11.5084,-21 10.5126,-20 10.5125,-20 11.996,-24 11.9959,-24 9.7444,-20.5 9.7444,-20.5 9.9977,-22 9.9976,-22 13.2586,-31 13.2587,-31 10.6501,-26.77327 10.6502,-26.77327 9.5999,-25.72673 9.5999,-25.72673 10.8565,-31.21717 10.8566,-31.21716 9.4308,-29.782836 9.4308,-29.782834 6.4814,-22 6.4814,-22 2.2591,-8.25 2.2591,-8.25 h 53.2149 53.215 l -4.9158,17.75 -4.9158,17.75 -6.4363,22.167283 -6.4363,22.167283 -6.607,21.332714 -6.607,21.33272 -7.0288,21.5 -7.0288,21.5 -9.462,27 -9.4619,27 -10.985,29.3369 -10.985,29.3369 -11.3249,28.1631 -11.325,28.1631 -12.0131,28 -12.0131,28 -10.6609,23.5 -10.6609,23.5 -12.5912,24 -12.5911,24 -9.1998,16.5 -9.1997,16.5 -5.7869,10 -5.787,10 -2.4457,4.25 -2.4457,4.25 h -0.2505 -0.2504 l 21.1521,-42.25 21.1522,-42.25 9.3446,-20 9.3446,-20 11.3653,-25.3905 11.3654,-25.39051 -0.3899,-0.38993 -0.3899,-0.38992 -2.0697,4.78043 -2.0697,4.78043 -15.6702,32 -15.6702,32 -14.31,29.55987 -14.31,29.55986 -2.4459,4.44014 -2.446,4.44013 -15.5211,28 -15.521,28 -12.2951,21 -12.295,21 -2.4098,4.25 -2.4098,4.25 h -0.4497 -0.4497 l 1.189,-2.25 1.1889,-2.25 6.2029,-11 6.203,-11 1.2657,-2.5 1.2657,-2.5 -0.9859,1 -0.986,1 -8.5536,14.5 -8.5536,14.5 -1.6313,2 -1.6312,2 1.5741,-3.25 1.5741,-3.25 h -0.5 -0.5 l -1.4858,2.87322 -1.4858,2.87321 0.6168,0.61686 0.6169,0.61685 -2.7131,2.51435 -2.713,2.51434 0.6153,0.99559 0.6153,0.99558 h -0.9214 -0.9215 l -7.3361,12.75 -7.3361,12.75 -13.453,21.5 -13.4529,21.5 -23.1482,35 -23.1481,35 -21.8618,31.5 -21.8617,31.5 -15.017,21 -15.0169,21 -19.3316,25.74372 -19.3317,25.74373 -24.1758,30.25627 -24.1758,30.25628 -19.6675,23.5027 -19.6675,23.5028 -21.495,24.4972 -21.4949,24.4973 -13.3066,14.5 -13.3065,14.5 -22.2415,23.5 -22.2414,23.5 -33.8538,33.5221 -33.8537,33.5221 -20.5,19.1057 -20.5,19.1056 -17.5,15.7607 -17.5,15.7606 -27,23.1825 -27,23.1825 -19.5,15.9756 -19.5,15.9756 -22,17.534 -22,17.534 -21.4041,16.1695 -21.404,16.1695 H 722.34594 0 Z m 1480.0833,719.6663 0.4167,-0.3338 20,-15.3576 20,-15.3577 20,-16.0344 20,-16.0344 18,-14.9698 18,-14.9699 17.5,-15.0492 17.5,-15.0492 18.9821,-17.0052 18.9821,-17.0051 20.0179,-18.4855 20.0179,-18.4856 39.3538,-39.0144 39.3538,-39.0145 21.2488,-22.5 21.2489,-22.5 15.9262,-17.5 15.9263,-17.5 18.3633,-21 18.3632,-21 21.6969,-26 21.697,-26 17.4651,-22 17.4651,-22 16.0369,-21 16.0368,-21 17.4889,-24 17.4888,-24 15.3738,-22 15.3738,-22 21.1591,-32 21.1592,-32 13.4952,-21.5 13.4952,-21.5 15.0069,-25 15.0069,-25 14.5282,-25.5 14.5283,-25.5 14.6423,-27 14.6423,-27 20.8664,-41.5 20.8665,-41.5 8.7096,-18.5 8.7096,-18.5 9.9857,-22 9.9858,-22 11.7832,-27.5 11.7832,-27.5 12.0135,-30 12.0134,-30 9.0081,-24 9.008,-24 8.4804,-24 8.4805,-24 7.2705,-22 7.2705,-22 0.7909,-0.31461 0.7908,-0.31461 -0.6137,-1.59943 -0.6138,-1.59944 1.0155,0.62758 1.0154,0.62758 8.1122,-26.21353 8.1122,-26.21354 6.4071,-22 6.4071,-22 4.8275,-17.75 4.8275,-17.75 h 29.3751 29.3751 l -0.5409,1.75 -0.5409,1.75 -8.0639,29.5 -8.0639,29.5 -7.3509,25 -7.3509,25 -6.2136,28.5 -6.2135,28.5 -3.8896,12.5 -3.8895,12.5 -6.505,26.5 -6.505,26.5 -3.8779,10.5 -3.8778,10.5 -0.6235,3.5 -0.6235,3.5 2.4462,-6 2.4461,-6 0.052,0.7443 0.052,0.7443 -4.9701,17.7023 -4.97,17.7023 0.3257,0.32578 0.3258,0.32579 6.5381,-17.27239 6.5382,-17.27238 4.2701,-11.75268 4.2702,-11.75269 0.3018,0.3018 0.3018,0.3018 -4.4717,15.95088 -4.4716,15.95089 -4.0742,14.5 -4.0743,14.5 -10.5608,26.5 -10.5609,26.5 -12.7751,30 -12.7751,30 -8.9655,20 -8.9654,20 -11.7245,25 -11.7246,25 -19.8672,39.5 -19.8671,39.5 -15.6153,29 -15.6153,29 -16.575,29 -16.5749,29 -15.6487,26 -15.6487,26 -13.8444,22 -13.8443,22 -17.4616,26.5 -17.4616,26.5 -12.0679,17.5 -12.068,17.5 -13.4966,19 -13.4965,19 -18.9608,25.5 -18.9607,25.5 -11.5702,15 -11.5702,15 -15.9844,20 -15.9844,20 -13.9948,17 -13.9947,17 -17.144,20 -17.144,20 -17.3404,19.5 -17.3403,19.5 -17.573,18.9744 -17.5729,18.9745 -22.6151,23.5255 -22.6151,23.5256 -25.3987,25 -25.3987,25 -17.518,16.5 -17.5179,16.5 -15.9683,14.5605 -15.9682,14.5605 -14.2183,12.6474 -14.2183,12.6475 -20.2817,17.3482 -20.2817,17.3482 -14.6902,12.1938 -14.6903,12.1939 h -66.2264 -66.2264 z m 215.1308,-12.8434 15.2859,-13.1771 12.5,-11.0253 12.5,-11.0253 10.5,-9.5455 10.5,-9.5455 20.4613,-19.0021 20.4614,-19.0021 24.0386,-23.5284 24.0387,-23.5283 22.0627,-22.4717 22.0627,-22.4716 10.9373,-11.5416 10.9373,-11.5415 16.545,-17.9585 16.545,-17.9584 15.9656,-18 15.9656,-18 15.0437,-17.5 15.0438,-17.5 14.5269,-17.5 14.5269,-17.5 17.9884,-22.5 17.9884,-22.5 16.4842,-21.5 16.4842,-21.5 14.015,-19 14.0149,-19 12.5172,-17.5 12.5172,-17.5 13.7941,-20 13.7942,-20 16.2166,-24.5 16.2166,-24.5 15.4489,-24.5 15.449,-24.5 2.2859,-3.75 2.2858,-3.75 h -0.4836 -0.4836 l -5.6669,8.75 -5.667,8.75 -16.2327,25.5 -16.2326,25.5 -14.3655,21.5 -14.3654,21.5 -13.5247,19.5 -13.5246,19.5 -13.9983,19.5 -13.9983,19.5 -19.5007,26 -19.5006,26 -14.4801,18.5 -14.4801,18.5 -12.5399,15.5 -12.5398,15.5 -19.6472,23.5 -19.6471,23.5 -18.3633,21 -18.3633,21 -15.9239,17.5 -15.9239,17.5 -20.105,21.4047 -20.105,21.4048 -15.8239,14.5952 -15.8239,14.5953 -4.6761,3.968 -4.6761,3.9681 25.0072,-25.4681 25.0071,-25.468 20.9048,-22.5 20.9048,-22.5 19.5935,-22 19.5935,-22 14.5645,-17 14.5644,-17 13.2631,-15.8906 13.263,-15.8907 21.2672,-26.6093 21.2673,-26.6094 14.982,-19.6077 14.9821,-19.6078 16.4856,-22.39225 16.4856,-22.39225 14.8727,-21 14.8726,-21 21.181,-31.5 21.1811,-31.5 12.7942,-20 12.7943,-20 12.6411,-20.5 12.6411,-20.5 8.3361,-14 8.3361,-14 2.017,-3.5 2.0171,-3.5 -1.023,1 -1.0229,1 -20.8871,31.36124 -20.8871,31.36124 -12.5691,19.63876 -12.569,19.63876 -12.2613,17.25 -12.2612,17.25 h -0.3776 -0.3776 l 13.3003,-20.25 13.3003,-20.25 13.0678,-20.63032 13.0677,-20.63031 17.5309,-29.04928 17.5308,-29.04927 16.4122,-28.82041 16.4121,-28.82041 9.5225,-17.5 9.5225,-17.5 9.2309,-17.4248 9.231,-17.4248 20.688,-41.5752 20.6881,-41.5752 8.8227,-19 8.8226,-19 12.3636,-27.68926 12.3636,-27.68926 11.6164,-27.81074 11.6164,-27.81074 6.0039,-15 6.0039,-15 10.4781,-27.5 10.4781,-27.5 10.3135,-29 10.3136,-29 10.5711,-32 10.5712,-32 6.5382,-21.2725 6.5382,-21.2725 6.459,-22.227499 6.459,-22.227501 6.8883,-25.5 6.8883,-25.5 1.8433,-7.25 1.8432,-7.25 h 15.8073 L 2599,0 V 0.54283213 1.0856643 l -7.5767,28.7071677 -7.5768,28.707168 -9.3427,32.5 -9.3427,32.5 -8.1131,26 -8.1131,26 -10.5584,31.5 -10.5584,31.5 -10.371,28.63115 -10.3709,28.63115 -10.1208,26.36885 -10.1208,26.36885 -7.514,18.5 -7.5139,18.5 -10.8164,25.5 -10.8164,25.5 -11.4262,25.5 -11.4261,25.5 -9.3693,20 -9.3692,20 -19.1573,38.5 -19.1572,38.5 -12.7596,24 -12.7596,24 -14.7429,26.5 -14.7429,26.5 -14.2773,24.5 -14.2772,24.5 -12.5188,20.5 -12.5188,20.5 -17.4909,27.5 -17.4909,27.5 -12.0094,18 -12.0093,18 -12.0173,17.5 -12.0172,17.5 -16.016,22.5 -16.016,22.5 -15.9508,21.5 -15.9508,21.5 -21.7725,28 -21.7726,28 -16.2686,20 -16.2686,20 -16.0446,19 -16.0446,19 -20.9802,23.9388 -20.9802,23.9387 -17.0355,18.5604 -17.0355,18.5603 -16.4654,17.5009 -16.4655,17.5009 -36.5345,36.5286 -36.5346,36.5287 -22.6104,21.2152 -22.6103,21.2153 -10.528,8.7561 -10.528,8.7561 -23.7027,21 -23.7027,21 -1.4175,0.8044 -1.4174,0.8045 -4.5227,-0.3045 -4.5227,-0.3044 16.737,-14.5 16.737,-14.5 20.2942,-18.3048 20.2942,-18.3048 v -0.6002 -0.6002 l -2.2443,1.905 -2.2444,1.905 -14.0056,12.5815 -14.0057,12.5815 -16.5,12.5085 -16.5,12.5086 -9.2419,6.6599 -9.242,6.66 h -4.5439 -4.544 z M 1725,1439.5881 v -0.4118 l 21.25,-18.8929 21.25,-18.8928 14,-12.8458 14,-12.8457 27,-25.729 27,-25.729 30,-30.4042 30,-30.4042 20.5664,-21.9663 20.5665,-21.9664 18.9335,-21.0517 18.9336,-21.0518 15.5786,-17.9482 15.5786,-17.9483 17.96,-21.5 17.96,-21.5 18.0084,-22.5 18.0084,-22.5 13.5486,-17.5 13.5486,-17.5 17.464,-23.5 17.4639,-23.5 12.5315,-17.5 12.5315,-17.5 13.4866,-19.5 13.4867,-19.5 15.0023,-22.5 15.0022,-22.5 11.8277,-18.5 11.8276,-18.5 11.1619,-18 11.1619,-18 12.527,-21 12.527,-21 9.5351,-16.5 9.5351,-16.5 9.5139,-17.07209 9.5138,-17.07209 9.9689,-18.42791 9.9688,-18.42791 15.5181,-30 15.5181,-30 14.2472,-29.5 14.2472,-29.5 9.4546,-20.5 9.4546,-20.5 12.3849,-28.15107 12.3849,-28.15107 8.6505,-20.84893 8.6504,-20.84893 10.4965,-26.5 10.4966,-26.5 9.2915,-25 9.2915,-25 9.4739,-27 9.4739,-27 8.5434,-26 8.5434,-26 8.0228,-26.12299 8.0227,-26.12298 8.4887,-29.877015 8.4886,-29.877015 6.1438,-23.5 6.1439,-23.5 0.9584,-3.75 0.9584,-3.75 h 19.5288 19.5289 l -0.5035,1.75 -0.5035,1.75 -7.1306,27.5 -7.1306,27.5 -6.0078,21.5 -6.0079,21.5 -5.0062,17 -5.0063,17 -5.9876,19.5 -5.9876,19.5 -10.5552,32 -10.5552,32 -8.9703,25.5 -8.9702,25.5 -10.5247,28 -10.5247,28 -11.992,30 -11.9921,30 -13.2874,31 -13.2875,31 -9.9665,22 -9.9666,22 -9.8258,21 -9.8258,21 -21.6464,43 -21.6464,43 -11.2953,21 -11.2954,21 -12.5304,22.5 -12.5304,22.5 -15.2357,26.10127 -15.2358,26.10127 -12.7628,20.89873 -12.7628,20.89873 -11.9912,19 -11.9912,19 -19.2288,29.13716 -19.2288,29.13717 -14.8154,21.36283 -14.8155,21.36284 -13.9801,19.5 -13.9802,19.5 -20.9528,27.9374 -20.9527,27.9374 -14.5414,18.5626 -14.5413,18.5626 -12.5421,15.5 -12.542,15.5 -14.996,18 -14.9959,18 -15.0267,17.5 -15.0266,17.5 -19.6017,22 -19.6017,22 -20.8615,22.5 -20.8614,22.5 -48.0514,48.0833 -48.0514,48.0834 -16.5083,15.4166 -16.5082,15.4167 -16.7218,15.25 -16.7218,15.25 h -28.02 H 1725 Z m 110.2803,-11.8381 13.1909,-12.25 21.0144,-20.1273 21.0144,-20.1273 36,-36.3765 36,-36.3764 19.0467,-20.4963 19.0467,-20.4962 14.4711,-16 14.4711,-16 17.0101,-19.5 17.0101,-19.5 13.5179,-16 13.5178,-16 9.4981,-11.5 9.4981,-11.5 14.0206,-17.5 14.0207,-17.5 12.4868,-16 12.4868,-16 16.525,-22 16.5249,-22 14.5028,-20 14.5028,-20 15.0133,-21.5 15.0132,-21.5 19.0029,-28.5 19.0029,-28.5 14.319,-22.5 14.3189,-22.5 13.4715,-21.99345 13.4714,-21.99346 15.3345,-26.20965 15.3345,-26.20964 14.9046,-26.7969 14.9046,-26.7969 12.7727,-24 12.7727,-24 19.2574,-38.5 19.2575,-38.5 11.7197,-25 11.7197,-25 12.3787,-27.7394 12.3787,-27.7394 9.5998,-22.7606 9.5997,-22.7606 11.8953,-29.66987 11.8952,-29.66986 10.4088,-27.83014 10.4087,-27.83013 7.989,-22.5 7.9891,-22.5 9.6703,-29 9.6703,-29 8.5137,-27.5 8.5137,-27.5 8.3634,-29 8.3634,-29 6.0028,-22.5 6.0029,-22.5 4.678,-18.75 L 2675.2487,0 H 2689.1243 2703 V 0.68412732 1.3682546 L 2695.4325,30.934127 2687.865,60.5 l -6.8988,25.045948 -6.8988,25.045952 -6.6214,22.45405 -6.6214,22.45405 -6.4831,20.92211 -6.4832,20.92211 -8.5469,26.07789 -8.5469,26.07789 -10.7664,30.5 -10.7664,30.5 -8.2185,22 -8.2184,22 -11.2689,28.5 -11.2688,28.5 -10.0242,24 -10.0241,24 -8.9975,20.5 -8.9975,20.5 -10.5071,23 -10.5071,23 -12.1563,25.5 -12.1563,25.5 -17.816,35 -17.8159,35 -13.7603,25.5 -13.7603,25.5 -15.5282,27.5 -15.5281,27.5 -22.181,37 -22.1809,37 -14.2816,22.5 -14.2816,22.5 -21.2412,32 -21.2412,32 -18.9633,27 -18.9634,27 -9.8501,13.5 -9.85,13.5 -16.4901,22 -16.49,22 -8.5344,11 -8.5344,11 -9.9576,10.5 -9.9575,10.5 -9.6891,12 -9.6891,12 -18.8379,19 -18.8379,19 4.9006,-6 4.9007,-6 4.4528,-5.5 4.4528,-5.5 -11.9809,12 -11.9808,12 -15.8955,18.5 -15.8954,18.5 -15.5401,17.4664 -15.5401,17.4665 -18.5,20.0256 -18.5,20.0257 -11.947,12.5079 -11.9471,12.5079 -36.0808,35.5 -36.0808,35.5 -23.4718,22.25 -23.4718,22.25 h -11.2057 -11.2057 z m 153.9381,-15.6438 27.4502,-27.8939 17.9157,-18.8867 17.9157,-18.8868 16.5196,-17.9694 16.5197,-17.9694 16.0061,-18 16.0062,-18 18.1779,-21.2067 18.178,-21.2067 14.3427,-17.2933 14.3428,-17.2933 18.0005,-22.5 18.0005,-22.5 13.526,-17.5 13.526,-17.5 14.9857,-20 14.9857,-20 15.5181,-21.5 15.518,-21.5 16.2978,-23.5 16.2977,-23.5 18.238,-27.5 18.2379,-27.5 13.9759,-22 13.9759,-22 15.5136,-25.5 15.5135,-25.5 14.2799,-24.5 14.2799,-24.5 14.9105,-26.78635 14.9106,-26.78634 15.4951,-29.21366 15.4952,-29.21365 18.372,-37 18.372,-37 11.5157,-24.60594 11.5157,-24.60595 13.4883,-30.39405 13.4882,-30.39406 10.9139,-26 10.9138,-26 5.8485,-14.7409 5.8484,-14.7409 0.3518,0.35172 0.3517,0.35171 -4.9378,14.88919 -4.9378,14.88918 -6.4761,16.5 -6.4761,16.5 -9.9863,23 -9.9862,23 -9.1872,20.38632 -9.1872,20.38631 -12.5672,26.61369 -12.5672,26.61368 -15.9996,32 -15.9995,32 -14.5171,27.5 -14.5171,27.5 -14.7248,26.5 -14.7247,26.5 -14.7717,25.46042 -14.7716,25.46042 -10.0119,16.53958 -10.012,16.53958 -15.2801,24.5 -15.28,24.5 -16.9242,25.8942 -16.9242,25.89421 -17.8832,26.10579 -17.8831,26.1058 -16.418,23 -16.418,23 -24.7172,33 -24.7172,33 -18.1673,23 -18.1674,23 -16.3533,20 -16.3534,20 -15.2474,18 -15.2474,18 -12.6042,14.5 -12.6041,14.5 -17.9839,20 -17.9838,20 -19.5192,20.9602 -19.5193,20.9602 -33.2364,34.1659 -33.2365,34.1659 -2.4783,1.6239 -2.4784,1.6239 h -1.6512 -1.6511 z m 143.4128,19.6438 8.087,-8.25 17.3909,-19.0222 17.3909,-19.0222 18.565,-20.9778 18.565,-20.9778 19.9797,-23.5 19.9797,-23.5 18.1861,-22.1939 18.1862,-22.1938 19.1576,-24.3062 19.1577,-24.3061 26.1897,-35 26.1898,-35 16.0006,-22.5 16.0006,-22.5 13.7821,-20 13.782,-20 15.2467,-23.0038 15.2466,-23.0037 12.8006,-19.99627 12.8006,-19.99623 11.1606,-18 11.1606,-18 15.5515,-26 15.5515,-26 16.4997,-29 16.4997,-29 12.4958,-23 12.4959,-23 10.7945,-20.5 10.7946,-20.5 20.1127,-40.5 20.1128,-40.5 14.102,-30.5 14.1021,-30.5 3.8404,-8.70107 3.8405,-8.70107 0.3481,0.34808 0.3481,0.34808 -12.463,31.42981 -12.4629,31.42982 -11.6611,24.42317 -11.6611,24.42318 -17.8116,35 -17.8116,35 -11.2484,21 -11.2484,21 -10.4159,18.77908 -10.4159,18.77909 -7.2835,15.22091 -7.2834,15.22092 -2.6413,4.1683 -2.6412,4.1683 -7.6552,14.3317 -7.6551,14.3317 -8.5291,14.2715 -8.529,14.27151 0.5648,0.56481 0.5648,0.56482 12.7189,-21.33632 12.7189,-21.33632 15.2343,-26.5 15.2342,-26.5 14.0158,-25.5 14.0157,-25.5 12.6795,-24 12.6795,-24 21.2775,-43 21.2776,-43 11.9038,-25.6672 11.9039,-25.6672 0.2392,0.23915 0.2391,0.23916 -4.4601,11.75596 -4.4602,11.75596 -8.7268,18.67209 -8.7268,18.67208 -21.7525,43.5 -21.7524,43.5 -11.6623,22 -11.6624,22 -15.9542,28.82924 -15.9542,28.82924 -14.5946,25.17076 -14.5946,25.17076 -12.9987,21.5 -12.9987,21.5 -17.5289,27.92825 -17.5289,27.92824 -22.6174,34.07171 -22.6173,34.0718 -13.8848,20 -13.8849,20 -13.9881,19.5 -13.9881,19.5 -18.9672,25.5 -18.9672,25.5 -21.7782,28 -21.7782,28 -16.6658,20.5 -16.6658,20.5 -19.7673,23.5 -19.7672,23.5 -19.2558,22 -19.2559,22 -18.6358,20.4991 -18.6359,20.4991 -7.8878,8.2509 -7.8878,8.2509 h -8.0901 -8.0901 z M 1840,1277.5 1879.4905,1238 h 0.5 0.5 L 1841,1277.5 1801.5095,1317 h -0.5 -0.5 z"
       id="path238260"
       inkscape:label="shade4" /><path
       style="display:inline;fill:#170a18;fill-opacity:1"
       d="m 0,1411.5453 v -28.4547 l 3.25,-0.4804 3.25,-0.4805 17,-1.0991 17,-1.0991 22,-1.9911 22,-1.9911 22.5,-2.5246 22.5,-2.5246 25.5,-3.4685 25.5,-3.4685 33.5,-5.5167 33.5,-5.5168 37.46099,-7.5091 37.461,-7.5092 0.45567,-0.4556 0.45567,-0.4557 h -0.78064 -0.78064 l -14.63602,2.453 -14.63603,2.453 -17,2.4671 -17,2.4671 -7.5,0.5359 -7.5,0.5358 9,-1.8485 9,-1.8486 -1.5,-0.1067 -1.5,-0.1067 -18,2.5484 -18,2.5484 -20,2.4005 -20,2.4005 -24,3.016 -24,3.0159 -30.5,2.0234 -30.5,2.0234 -26,1.497 -26,1.4971 -10.75,0.666 L 0,1368.3039 V 684.15197 0 h 928.56739 928.56741 l -0.687,2.25 -0.6869,2.25 -8.4768,23.5 -8.4768,23.5 -8.5435,21.98281 -8.5435,21.982809 -8.7425,21.017191 -8.7424,21.01719 -8.5414,19.54204 -8.5414,19.54204 -10.6785,22.95796 -10.6785,22.95796 -16.862,33.5 -16.8621,33.5 -8.6239,16 -8.624,16 -12.0812,21.5 -12.0813,21.5 -12.5052,21 -12.5052,21 -13.1551,21 -13.1551,21 -12.5354,19 -12.5354,19 -10.306,15 -10.306,15 -12.5094,17.5 -12.5095,17.5 -18.475,24.5 -18.475,24.5 -13.5074,17 -13.5074,17 -9.0594,11 -9.0594,11 -20.5276,23.84039 -20.5276,23.8404 -7.5,9.34239 -7.5,9.34239 -3.3379,4.31722 -3.3378,4.31721 5.1961,-5.5 5.1961,-5.5 14.2207,-16 14.2207,-16 16.9259,-20 16.926,-20 17.5633,-22 17.5633,-22 11.4999,-15 11.4999,-15 15.0166,-20.5 15.0167,-20.5 11.6201,-16.64858 11.6202,-16.64859 17.813,-26.85141 17.8131,-26.85142 8.3935,-13.5 8.3936,-13.5 0.9947,-1 0.9947,-1 -3.8169,7 -3.8169,7 -3.0017,5.5 -3.0018,5.5 1.0168,-1 1.0168,-1 10.5115,-17 10.5115,-17 9.2774,-15.5 9.2775,-15.5 12.2548,-21.5 12.2549,-21.5 12.1569,-22.5 12.157,-22.5 18.879,-38 18.8791,-38 9.1566,-20 9.1567,-20 12.0169,-27.94957 12.0168,-27.94958 10.5429,-26.550423 L 1840.301,62.5 l 11.2703,-31 11.2704,-31 20.0791,-0.2707055 L 1903,-0.041411 V 0.89458721 1.8305854 l -5.0981,14.8347076 -5.0981,14.834707 -10.9156,29.272222 -10.9155,29.272222 -6.8906,17.227776 -6.8907,17.22778 -9.5098,22.5 -9.5099,22.5 -9.2076,20.5 -9.2075,20.5 -3.428,7.7651 -3.428,7.7651 0.698,1.12927 0.6979,1.12927 3.379,-6.89437 3.379,-6.89437 9.3234,-20.5 9.3234,-20.5 8.2531,-19.5 8.253,-19.5 2.7383,-6 2.7383,-6 6.8359,-17.23876 6.8359,-17.238762 0.3584,0.35835 0.3583,0.35835 -2.9519,11.880412 -2.9519,11.88041 -3.4611,8.05072 -3.4611,8.05072 -0.6507,3.44928 -0.6506,3.44928 2.3679,-5.5 2.3679,-5.5 2.607,-5.5 2.6069,-5.5 3.5848,-9 3.5849,-9 -0.6484,3.5 -0.6484,3.5 -4.2333,10.58197 -4.2333,10.58198 -0.7319,2.91598 -0.7319,2.91597 0.5296,-0.52959 0.5296,-0.52958 10.4561,-26.46837 10.4561,-26.46836 8.6475,-23.827687 8.6475,-23.827686 4.6981,-13.920666 L 1916.5,0.0032948 1918.25,0.0016474 1920,0 v 0.36248176 0.36248177 l -2.4379,11.88751847 -2.438,11.887518 -1.536,4.301866 -1.536,4.301866 -2.4745,11.719958 -2.4745,11.719958 -7.1376,18.978176 -7.1376,18.978176 -8.7864,22 -8.7864,22 -6.734,16 -6.734,16 -10.429,23.38126 -10.4289,23.38126 0.3783,0.37836 0.3784,0.37836 10.6888,-24.016 10.6888,-24.01601 11.326,-27.24361 11.3261,-27.24362 9.8419,-25.716993 9.8418,-25.716993 0.2584,0.258331 0.2583,0.258331 -1.8663,7.458662 -1.8663,7.458662 -7.7358,20 -7.7359,20 -9.7506,23.5 -9.7507,23.5 -9.495,21.5 -9.4951,21.5 -4.6808,10 -4.6808,10 -6.3718,20.57908 -6.3718,20.57908 -3.0575,7.69695 -3.0576,7.69695 v 1.86279 1.86278 l -7.3573,14.86119 -7.3572,14.86118 -11.2829,21 -11.2829,21 -11.5272,20.5 -11.5272,20.5 -15.4074,25.82453 -15.4074,25.82454 -12.0695,19.17546 -12.0696,19.17547 -3.9044,5.76677 -3.9043,5.76677 0.623,1.00801 0.623,1.008 -0.9736,-0.27477 -0.9736,-0.27478 -5.2449,8 -5.2449,8 -2.404,4 -2.404,4 2.662,-3 2.6621,-3 -0.6732,2 -0.6731,2 0.9827,-1 0.9827,-1 15.9113,-24.5 15.9114,-24.5 13.7748,-22.42121 13.7748,-22.42121 12.4095,-21.3992 12.4094,-21.39919 10.355,-18.6796 10.3549,-18.67959 8.5117,-16 8.5117,-16 16.9489,-34 16.9489,-34 3.826,-8.25611 3.8259,-8.2561 0.3382,0.3382 0.3382,0.3382 -5.8497,13.41791 -5.8497,13.4179 -14.0066,31.5 -14.0066,31.5 -0.7755,2.5 -0.7756,2.5 -5.7642,11.5 -5.7642,11.5 -3.7078,6.5 -3.7079,6.5 -17.5322,33.5 -17.5321,33.5 -5.6966,10 -5.6966,10 -4.8222,9 -4.8222,9 -9.0125,15.5 -9.0125,15.5 -19.7559,29.53732 -19.756,29.53732 -16.7287,23.46268 -16.7287,23.46268 -20.0095,26.5 -20.0094,26.5 -16.0279,20 -16.0279,20 -17.1742,20.5 -17.1743,20.5 -10.9308,12.5 -10.9308,12.5 -21.4351,26.42787 -21.435,26.42787 -18.3762,19.07213 -18.3762,19.07213 -9.1431,9.01449 -9.1431,9.01448 -18.0241,17.48552 -18.0242,17.48551 -18.556,17.05409 -18.5561,17.0541 -20.9198,18.35089 -20.9198,18.35089 -20,16.67954 -20,16.67959 -22.3438,17.7764 -22.3439,17.7765 -24.3484,18.2749 -24.3484,18.2749 -19.8077,14.2032 -19.8078,14.2032 -14.5,11.4075 -14.5,11.4076 v 1.17 1.17 l -1.3892,0.4631 -1.3892,0.4631 0.7995,-1.3798 0.7996,-1.3797 -0.9104,0.8333 -0.9103,0.8334 -0.024,1.1666 -0.024,1.1667 -1.7152,-0.1371 -1.7151,-0.1371 0.4766,0.7711 0.4765,0.771 -19.7373,12.7889 -19.7373,12.7889 -22,13.6662 -22,13.6662 -23.03456,13.5148 -23.03457,13.5147 -23.46543,12.9906 -23.46544,12.9906 -21,11.0355 -21,11.0354 -17,8.4985 -17,8.4984 -21.5,10.2289 -21.5,10.2289 -19.5,8.7784 -19.5,8.7785 -21,8.9841 -21,8.9842 -23,9.2469 -23,9.2469 -22,8.2946 -22,8.2946 -27,9.4827 -27,9.4827 -23.67576,7.581 -23.67576,7.5811 -23.32424,6.9484 -23.32424,6.9484 -20.22133,5.5766 L 440.05734,1440 H 220.02867 0 Z m 493.08333,28.0761 0.41667,-0.3787 22.5,-6.7176 22.5,-6.7176 34,-11.2811 34,-11.2811 23.91451,-8.7166 23.91451,-8.7166 22.58549,-8.7825 22.58549,-8.7824 20,-8.2377 20,-8.2376 23.80998,-10.4343 23.80998,-10.4344 22.24595,-10.3517 22.24595,-10.3518 34.94407,-17.4815 34.94407,-17.4814 24.5,-13.2326 24.5,-13.2325 21.94911,-12.5283 21.94912,-12.5283 23.55087,-14.2069 23.5509,-14.2068 19.5,-12.3504 19.5,-12.3503 28.5,-19.1078 28.5,-19.1079 22.8885,-16.3179 22.8884,-16.3179 22.4934,-16.9529 22.4933,-16.9529 16.6182,-13.0953 16.6182,-13.0953 18.5,-15.189 18.5,-15.1891 19.3367,-16.59235 19.3368,-16.59235 18.6521,-16.795 18.6521,-16.795 16.4979,-15.5 16.4979,-15.5 20.9007,-20.5 20.9008,-20.5 20.6125,-21.52059 20.6125,-21.52058 16.5261,-17.97942 16.5261,-17.97941 17.4903,-20 17.4903,-20 15.0522,-18 15.0523,-18 18.2402,-22.89267 18.2403,-22.89267 19.25,-25.60733 19.25,-25.60733 12.5237,-17.5 12.5237,-17.5 14.0439,-20.5 14.0439,-20.5 13.9437,-21.5 13.9438,-21.5 14.5347,-23.5 14.5347,-23.5 11.976,-20.5 11.976,-20.5 10.0326,-18 10.0326,-18 11.5424,-21.56883 11.5423,-21.56882 14.0337,-28.05348 14.0336,-28.05348 10.4531,-22.3777 10.4531,-22.37769 4.7387,-10.5 4.7387,-10.5 10.9605,-25.5 10.9605,-25.5 11.2802,-28.5 11.2801,-28.5 3.2701,-8.774623 3.27,-8.774622 0.3597,0.359745 0.3598,0.359746 -1.4651,4.868216 -1.4652,4.868215 0.3295,0.329451 0.3294,0.32945 4.8624,-13.470983 4.8623,-13.470984 0.3872,0.387148 0.3871,0.387148 -1.1201,3.213204 -1.1201,3.213204 0.3734,0.373411 0.3734,0.37341 7.5476,-21.321569 7.5477,-21.32157 5.7693,-17.213998 L 1984.3718,0 h 32.7071 32.7071 l 0.607,1.5817875 0.607,1.5817874 -0.015,0.6682126 L 2050.97,4.5 2049.9044,3 l -1.0656,-1.5 0.5448,2.5301486 0.5447,2.5301485 -0.5775,2.2086041 -0.5776,2.2086038 -0.6363,-0.389424 -0.6363,-0.389425 -0.087,3.150672 -0.087,3.150672 -6.6362,22.170079 -6.6363,22.170079 -7.6653,21.329921 -7.6654,21.329921 -7.2691,21.5 -7.269,21.5 -7.4563,20.5 -7.4563,20.5 -4.5524,11 -4.5524,11 -9.4155,21.5 -9.4154,21.5 -9.899,21.5 -9.8989,21.5 -19.6911,39.5 -19.691,39.5 -12.1726,22.5 -12.1725,22.5 -9.5803,17 -9.5804,17 -11.4683,19.5 -11.4683,19.5 -13.4939,21.93124 -13.4939,21.93124 -20.4988,31.56876 -20.4988,31.56876 -8.7059,12.5 -8.706,12.5 -13.618,20.75 -13.618,20.75 h 0.3879 0.388 l 13.3857,-18.75 13.3857,-18.75 11.0726,-16 11.0726,-16 15.4601,-23.5 15.46,-23.5 16.5113,-26.5 16.5113,-26.5 15.4734,-26.5 15.4734,-26.5 8.0589,-14.5 8.0589,-14.5 10.7745,-20 10.7745,-20 17.1661,-34.25242 17.1661,-34.25243 0.8284,0.75243 0.8285,0.75242 -0.6479,-1.80194 -0.6479,-1.80194 1.1585,0.71599 1.1585,0.71598 -0.6585,-1.71598 -0.6585,-1.71599 1.1585,0.71599 1.1585,0.71598 -0.6386,-1.66405 -0.639,-1.66404 h 0.8394 0.8395 l 9.3211,-19.97472 9.3211,-19.97472 0.3306,0.33057 0.3305,0.33056 -8.1208,19.39415 -8.1209,19.39416 -18.2235,36.5 -18.2235,36.5 -8.8053,16.5 -8.8053,16.5 -10.5164,19 -10.5164,19 -7.4964,13 -7.4965,13 -11.019,18.5 -11.0189,18.5 -14.014,22.5 -14.0141,22.5 -13.3831,20.39703 -13.3831,20.39702 -13.1299,19.10298 -13.1298,19.10297 -12.5046,17.5 -12.5046,17.5 -20.6686,27.5 -20.6685,27.5 -15.9334,20 -15.9333,20 -13.9575,17.07517 -13.9576,17.07517 -21.6906,26.92483 -21.6905,26.92483 -13.3095,14.58401 -13.3094,14.584 -13.5,15.916 -13.5,15.91599 -1.4088,2 -1.4088,2 8.9346,-9 8.9346,-9 13.3113,-14 13.3114,-14 -8.1812,10 -8.1812,10 10.7386,-11 10.7386,-11 -5.8717,7 -5.8717,7 -10.5229,11.99966 -10.5228,11.99966 -36,36.10621 -36,36.10622 -16.551,15.89412 -16.5509,15.89413 7.5509,-6.9972 7.551,-6.99722 8.4348,-8.00279 8.4347,-8.00279 -7.3784,8.34728 -7.3784,8.34727 -27.0396,26.15275 -27.0396,26.1527 -8.0168,7.5492 -8.0167,7.5492 -11.5,10.0241 -11.5,10.0242 -14.5,11.9888 -14.5,11.9888 -22.0393,17.5562 -22.0394,17.5562 -24.6351,18.5578 -24.6351,18.5577 -24.8256,17.6973 -24.8255,17.6972 -34,22.6733 -34,22.6732 -25,15.5372 -25,15.5373 -16,9.5154 -16,9.5155 -21,12.0226 -21,12.0225 -23.42765,12.6964 -23.42766,12.6963 -28.07234,14.3678 -28.07235,14.3678 -23.5,11.1797 -23.5,11.1797 -25.34559,11.4033 -25.3456,11.4033 -9.38042,3.9925 -9.38043,3.9925 -39.6893,-0.2615 -39.6893,-0.2615 19.91532,-7.9046 19.91532,-7.9047 31,-13.2154 31,-13.2154 25.5,-11.7298 25.5,-11.7298 34,-16.827 34,-16.827 21,-11.1723 21,-11.1723 22.5,-12.5609 22.5,-12.5608 20.5,-11.985 20.5,-11.9851 23.5,-14.5343 23.5,-14.5343 21.5,-13.9238 21.5,-13.9238 22,-15.09 22,-15.0899 17.5,-12.4811 17.5,-12.4811 23,-17.2151 23,-17.2151 17.5,-13.7591 17.5,-13.7592 17.8685,-14.6015 17.8685,-14.6016 2.6315,-2.3326 2.6315,-2.3327 -3.2432,2.1459 -3.2432,2.1459 -0.8818,-0.5451 -0.8819,-0.545 -3.9284,2.8457 -3.9283,2.8456 -22.9466,18.4066 -22.9466,18.4065 -19,14.5738 -19,14.5737 -20.5,14.9886 -20.5,14.9886 -22,15.3722 -22,15.3723 -26,17.1311 -26,17.1311 -20,12.4983 -20,12.4983 -17.5,10.5158 -17.5,10.5158 -21,12.038 -21,12.0381 -25,13.6261 -25,13.6261 -36.5,18.3918 -36.5,18.3918 -23,10.7025 -23,10.7025 -18,7.9981 -18,7.9981 -22.5,9.504 -22.5,9.504 -23.73661,9.3892 L 689.02678,1440 H 590.84672 492.66667 Z M 1011,1439.2073 l 1.5,-0.9438 21.5,-11.7689 21.5,-11.769 17.5,-10.006 17.5,-10.006 27.5,-16.5236 27.5,-16.5237 23.5,-14.9979 23.5,-14.998 19.5,-13.0072 19.5,-13.0073 18,-12.5084 18,-12.5085 18,-12.9959 18,-12.996 20,-15.0177 20,-15.0177 11.5,-8.9874 11.5,-8.9875 17.5,-14.0083 17.5,-14.0083 21.5,-18.0094 21.5,-18.0095 19,-16.6466 19,-16.6466 13,-11.8217 13,-11.8216 23,-21.7205 23,-21.7205 34.5106,-34.8619 34.5106,-34.8619 17.9972,-19.5 17.9972,-19.5 16.0226,-18 16.0225,-18 12.0287,-14 12.0287,-14 14.5177,-17.5 14.5177,-17.5 17.5025,-22 17.5026,-22 17.0146,-22.5 17.0147,-22.5 14.4751,-20 14.4751,-20 14.5873,-21.04316 14.5873,-21.04316 14.4394,-21.95684 14.4394,-21.95684 12.0156,-19 12.0156,-19 13.2735,-22 13.2735,-22 13.2359,-23 13.2358,-23 10.9955,-20.02646 10.9954,-20.02647 16.0801,-30.97353 16.0802,-30.97354 13.5659,-28.25541 13.5658,-28.25541 10.1037,-22.24459 10.1037,-22.24459 11.791,-27.5 11.791,-27.5 12.4909,-31.5 12.491,-31.5 7.7273,-21 7.7274,-21 9.2334,-26.5 9.2333,-26.5 8.5713,-27 8.5713,-27 3.2391,-10.747732 3.2392,-10.74773114 0.4099,0.40988307 0.4098,0.40988307 -7.1785,23.337848 -7.1786,23.337849 -8.2903,25 -8.2904,25 -7.9982,22.5 -7.9983,22.5 -8.5046,22.5 -8.5046,22.5 -9.0255,22.55534 -9.0255,22.55534 -11.4959,26.94466 -11.4959,26.94466 -10.1435,22.34954 -10.1435,22.34955 -11.4976,24.15045 -11.4976,24.15046 -14.5602,28.49681 -14.5602,28.49681 -10.5317,19.50319 -10.5317,19.50319 -11.521,20.5 -11.5209,20.5 -14.4843,24.5 -14.4843,24.5 -14.0064,22.5 -14.0063,22.5 -21.1525,32 -21.1525,32 -16.5052,23.5 -16.5052,23.5 -13.7943,18.81809 -13.7943,18.81808 -15.0661,19.68192 -15.066,19.68191 -15.9921,20 -15.9921,20 -15.0285,18 -15.0286,18 -14.6862,17 -14.6862,17 -15.7445,17.5 -15.7445,17.5 -20.1216,21.49155 -20.1217,21.49156 -30,30.06359 -30,30.0636 -19.3188,18.2212 -19.3189,18.2212 -21.1811,19.1312 -21.1812,19.1312 -24,20.6146 -24,20.6147 -21.5,17.5614 -21.5,17.5614 -18.5,14.4734 -18.5,14.4735 -20,14.9884 -20,14.9884 -16,11.5388 -16,11.5389 -15.1073,10.596 -15.1073,10.5959 -22.8927,15.3432 -22.8927,15.3431 -17,10.9025 -17,10.9024 -23.0034,14.1485 -23.0034,14.1486 -24.484,14.3047 -24.484,14.3047 -26.0126,14.3122 -26.0126,14.3123 -2,0.6341 -2,0.6342 z"
       id="path238259"
       inkscape:label="shade3" /><path
       style="display:inline;fill:#0e0916;fill-opacity:1"
       d="m 131,1323.8643 6.5,-0.8888 22,-3.0673 22,-3.0672 29.29284,-4.9084 29.29285,-4.9084 25.70715,-5.0842 25.70716,-5.0843 22.5,-4.9753 22.5,-4.9753 24,-5.9056 24,-5.9056 25.5,-6.9895 25.5,-6.9896 20,-5.9998 20,-5.9999 20.13284,-6.4816 20.13284,-6.4817 19.36716,-6.6606 19.36716,-6.6605 20.5,-7.5332 20.5,-7.5332 23.5,-9.272 23.5,-9.272 22.5,-9.5101 22.5,-9.5102 21,-9.489 21,-9.4889 26.20395,-12.5944 26.20395,-12.5945 25.09681,-13.0554 25.09681,-13.0554 19.69924,-10.8377 19.69924,-10.8377 21.91918,-12.7113 21.91918,-12.7113 2.58082,-1.5956 2.58082,-1.5957 -1,1.063 -1,1.063 -16.5,10.4434 -16.5,10.4434 -21,12.5607 -21,12.5606 -11.81283,6.6771 -11.81282,6.677 -20.18718,11.0543 -20.18717,11.0543 -19,9.8242 -19,9.8241 -24,11.1776 -24,11.1776 -21.5,9.5039 -21.5,9.5039 -20.78222,8.4199 -20.78223,8.4198 -25.21777,9.3524 -25.21778,9.3524 -19,6.5253 -19,6.5253 -21.5,6.9791 -21.5,6.9792 -20.5,6.0448 -20.5,6.0447 -19,5.0414 -19,5.0415 -29,6.943 -29,6.943 -25,5.0014 -25,5.0015 -24,4.0291 -24,4.0292 -17,2.5004 -17,2.5005 -20,2.5228 -20,2.5228 -19.72718,2.0196 -19.72718,2.0197 -2.27282,-0.1234 -2.27282,-0.1235 z M 0,1195.7219 v -4.5627 l 6.25,-0.5794 6.25,-0.5793 19.5,-1.5462 19.5,-1.5461 31.5,-3.4833 31.5,-3.4833 24.5,-3.5017 24.5,-3.5016 26.38199,-4.4808 26.38198,-4.4807 20.61802,-4.0511 20.61801,-4.051 24.5,-5.4042 24.5,-5.4041 22.37407,-5.5534 22.37406,-5.5533 21.62594,-5.9308 21.62593,-5.9307 22,-6.6235 22,-6.6235 24.5,-8.0328 24.5,-8.0328 28.5,-10.3305 28.5,-10.3304 25.2549,-10.0461 25.25491,-10.046 24.24509,-10.4241 24.2451,-10.4241 23,-10.6615 23,-10.6616 37.43272,-18.91337 37.43271,-18.91336 -0.93271,0.84637 -0.93272,0.84637 -7.51525,5.00841 -7.51525,5.00841 -9.48475,4.74509 -9.48475,4.74509 -14,8.54949 -14,8.5496 -1,0.9684 -1,0.9684 31.75,-16.02445 31.75,-16.02444 v 0.2851 0.2851 l -4.99613,3.206 -4.99612,3.20601 0.54806,0.88679 0.54807,0.88678 -1.54351,-0.5923 -1.54351,-0.5923 -0.61322,1.59801 -0.61321,1.59801 -0.89521,-0.55327 L 747,989.88197 V 991 v 1.11803 l -1,-0.61803 -1,-0.61803 v 1.04973 1.04973 l -30.25,14.90547 -30.25,14.9054 -18.8079,8.6277 -18.80791,8.6277 -22.19209,9.5761 -22.1921,9.5762 -22,8.8086 -22,8.8086 -11,4.197 -11,4.1969 -23,8.2657 -23,8.2656 -24.5,8.0711 -24.5,8.071 -21.72127,6.5173 -21.72127,6.5173 -20.07945,5.5624 -20.07945,5.5625 -25.69928,6.3784 -25.69928,6.3784 -20.5,4.5551 -20.5,4.555 -22.5,4.4835 -22.5,4.4835 -23.5,4.0494 -23.5,4.0494 -20,2.9675 -20,2.9676 -16,2.0263 -16,2.0262 -17.5,1.9776 -17.5,1.9776 -22,1.9972 -22,1.9973 -11.25,0.6853 L 0,1200.2847 Z M 0.22983673,1101.5963 0.5,1081.533 l 21.5,-1.7292 21.5,-1.7291 27.5,-3.0669 27.5,-3.0668 21.5,-3.0163 21.5,-3.0162 23.5,-3.9109 23.5,-3.911 19,-3.5867 19,-3.5867 25.5,-5.5378 25.5,-5.5377 27.5,-6.8903 27.5,-6.8904 24.5,-6.9507 24.5,-6.9507 21,-6.5263 21,-6.52629 22.5,-7.63332 22.5,-7.63331 25.09828,-9.36919 25.09828,-9.36919 20.90172,-8.44825 20.90172,-8.44824 18.5,-8.01018 18.5,-8.01018 20.8612,-9.61832 20.8612,-9.61832 33.6388,-16.92931 33.6388,-16.92931 21.9863,-12.12035 21.98631,-12.12035 18.51369,-10.81169 18.5137,-10.81169 18.5,-11.42668 18.5,-11.42668 15.5,-10.07516 15.5,-10.07517 18,-12.2537 18,-12.25371 15.5,-11.08302 15.5,-11.08301 18.5,-13.91856 18.5,-13.91855 19.5,-15.52558 19.5,-15.52557 15.5,-13.02794 15.5,-13.02794 12,-10.52126 12,-10.52127 10.5,-9.43654 10.5,-9.43655 25.3973,-24.09246 25.3972,-24.09246 22.6028,-23.50583 22.6027,-23.50582 15.8648,-17.42647 15.8648,-17.42647 18.5242,-21.56771 18.5241,-21.5677 19.1871,-24 19.1871,-24 13.8872,-18.5 13.8873,-18.5 13.9005,-19.5 13.9005,-19.5 13.7323,-20.5 13.7322,-20.5 10.4824,-16.5 10.4824,-16.5 8.7143,-14.5 8.7143,-14.5 -2.2928,2.52483 -2.2927,2.52483 -3.3923,3.97517 -3.3923,3.97517 2.7053,-5 2.7052,-5 -1.3129,1.56034 -1.313,1.56034 -3.6862,4.46474 -3.6861,4.46475 -11.884,18.97491 -11.8839,18.97492 -15.3541,23 -15.3542,23 -13.5165,19 -13.5166,19 -15.0099,20 -15.0098,20 -18.4593,23 -18.4592,23 -10.3483,12.16883 -10.3484,12.16883 -7.7028,6.33117 -7.7028,6.33117 -3.539,3.60106 -3.5389,3.60106 -7.5,5.83285 -7.5,5.83285 1.9658,-2.43391 1.9657,-2.43391 4.0343,-4.44972 4.0342,-4.44973 -2,1.42634 -2,1.42634 -7.4328,6.02339 -7.4329,6.02338 -5.5451,5 -5.5452,5 -7.522,7.58943 -7.522,7.58943 -12,8.81339 -12,8.81339 -2,1.5615 -2,1.5615 6.5,-6.90056 6.5,-6.90056 -3.5,2.52697 -3.5,2.52696 -5.5,3.89244 -5.5,3.89244 21.1481,-21.98316 21.1482,-21.98317 3.2865,-4 3.2864,-4 -6.9889,6.77901 -6.989,6.779 -0.5968,-0.59681 -0.5968,-0.59681 -8.3488,7.84053 -8.3489,7.84053 -3.5,2.44121 -3.5,2.4412 16.025,-16.96393 16.025,-16.96393 13.4826,-15 13.4826,-15 12.0433,-14 12.0433,-14 9.8377,-11.85937 9.8377,-11.85937 -1.8886,1.01755 -1.8886,1.01755 -2.5,2.68958 -2.5,2.68959 -3,2.0913 -3,2.09129 1.5593,-1.93906 1.5593,-1.93906 4.4407,-5.47361 4.4407,-5.47361 -3,2.20727 -3,2.20728 -7.141,6.76633 -7.1411,6.76634 -14.9525,17.5 -14.9526,17.5 -11.6939,12.9938 -11.6939,12.9938 -6.3469,5.05801 -6.347,5.05801 -7.3655,7.61799 -7.3656,7.61798 -30.524,29.83021 -30.524,29.8302 -20.476,18.64583 -20.476,18.64582 -19.5,16.74358 -19.5,16.74357 -24.5,19.62397 -24.5,19.62397 -19.5,14.57353 -19.5,14.57354 -19.5,13.80218 -19.5,13.80219 -24.5,16.19786 -24.5,16.19787 -17,10.52035 -17,10.52035 -19.81552,11.67799 -19.81552,11.67799 -22.68448,12.51033 -22.68448,12.51033 -35.5,17.76554 -35.5,17.76554 -16,7.31141 -16,7.3114 -19,8.24667 -19,8.24666 -23,9.25169 -23,9.2517 -20,7.46883 -20,7.46884 -26.5,8.97052 -26.5,8.97052 -24,7.34223 -24,7.34223 -20,5.53084 -20,5.53085 -20,5.01305 -20,5.01304 -22.12182,4.99947 -22.12183,4.99942 -23.17597,4.5498 -23.17598,4.5498 -23.7022,3.9724 -23.7022,3.9724 -21,2.9832 -21,2.9831 -22,2.5138 -22,2.5137 -21.947989,2.0351 L 7.6040211,1034 H 3.8020105 0 v -19 -19 H 1.4499684 2.8999368 L 20.699968,994.46888 38.5,992.93775 61,990.42926 l 22.5,-2.5085 18.5,-2.47448 18.5,-2.47449 33,-5.52736 33,-5.52735 6,-1.42937 6,-1.42936 -5.5,0.47481 -5.5,0.47481 -18.5,0.41379 -18.5,0.41378 10.5,-1.9298 10.5,-1.9298 16.5,-3.07952 16.5,-3.07951 21,-4.46534 21,-4.46535 26.47109,-6.46686 26.47109,-6.46686 18.52891,-5.06741 18.52891,-5.0674 26,-7.85718 26,-7.85719 23.5,-7.94434 23.5,-7.94435 19.77812,-7.24586 19.77812,-7.24587 -0.31413,-0.31412 -0.31412,-0.31412 -7.84451,2.00957 -7.84451,2.00958 -1.42142,-0.54545 -1.42143,-0.54545 0.61096,0.98854 0.61095,0.98855 -1.80901,0.0765 -1.80902,0.0765 -1.5,0.34632 -1.5,0.34632 -11.5,3.03813 -11.5,3.03813 -9.5,2.11329 -9.5,2.11329 -3.5,0.33984 -3.5,0.33984 -3,0.70143 -3,0.70143 -19,5.95942 -19,5.95942 -24.5,6.9822 -24.5,6.98219 -25.5,6.38821 -25.5,6.3882 -6.5,1.45358 -6.5,1.45359 -14,1.56712 -14,1.56711 -17,1.49582 -17,1.49581 -20.5,1.119 -20.5,1.119 -16.29346,2.45408 -16.29346,2.45408 -27.206541,3.41641 L 54.5,961.90268 32,963.94659 9.5,965.9905 4.75,966.52969 0,967.06889 v -1.89744 -1.89743 l 9.75,-0.69881 9.75,-0.69881 19.5,-1.94521 19.5,-1.94521 21,-2.5594 21,-2.55939 2.5,-0.85465 2.5,-0.85465 -23,-0.22914 -23,-0.22914 L 64,950 68.5,949.30039 48,949.02654 27.5,948.7527 47,946.62635 66.5,944.5 54,944 l -12.5,-0.5 8,-0.79961 8,-0.79962 23.293511,-2.93189 23.293509,-2.9319 19.70649,-3.03527 19.70649,-3.03527 25,-4.52766 25,-4.52767 23.5,-5.0235 23.5,-5.02351 22,-5.3446 22,-5.34459 22.5,-6.16895 22.5,-6.16894 21,-6.37197 21,-6.37198 26.5,-8.91762 26.5,-8.91763 17,-6.24473 17,-6.24474 28,-11.24902 28,-11.24901 21,-9.26296 21,-9.26296 25.86083,-12.3193 25.86082,-12.31931 25.63918,-13.44353 25.63917,-13.44354 19,-10.71299 19,-10.71299 16,-9.57819 16,-9.57819 16,-9.97588 16,-9.97587 21,-14.00843 21,-14.00843 16.5,-11.56177 16.5,-11.56177 22.09545,-16.60965 22.09545,-16.60964 17.90455,-14.34778 L 916.5,578.62935 928.49628,568.56468 940.49257,558.5 952.99628,547.56526 965.5,536.63051 l 16,-14.5306 16,-14.5306 34.5871,-34.53466 34.5871,-34.53465 12.4129,-13.5137 12.4129,-13.51371 16.3642,-18.69309 16.3641,-18.69309 4.3407,-5.79321 4.3406,-5.7932 2.2933,-2.97609 2.2933,-2.97609 -17.4981,17.49493 -17.4981,17.49494 -17.5,17.04203 -17.5,17.04202 -5.923,5.43913 -5.9231,5.43913 0.8686,-1.5 0.8685,-1.5 -7.1988,6.5 -7.1989,6.5 -8.2466,7.30705 -8.2467,7.30705 -23.0029,19.28168 -23.00299,19.28168 -20.15032,15.53293 -20.15033,15.53294 -6.84673,4.59843 -6.84673,4.59843 -9,7.64736 -9,7.64736 -9.5,7.02385 -9.5,7.02384 -1.25,0.98114 -1.25,0.98115 v -0.49274 -0.49273 l 15.5,-12.74344 15.5,-12.74343 v -0.4368 -0.4368 l -6.75,4.75235 -6.75,4.75236 -10.5,7.49345 -10.5,7.49345 -11.5,9.14319 -11.5,9.1432 -20,15.00096 -20,15.00097 -18.68765,13.15746 -18.68765,13.15746 -21.81235,14.37654 -21.81235,14.37654 -17.73632,9.12897 -17.73631,9.12896 -6.52047,3.99097 -6.52046,3.99096 -9.24322,4.62476 -9.24322,4.62476 -15.30124,8.4973 -15.30123,8.4973 -0.46052,-0.46052 -0.46052,-0.46052 15.76175,-8.74283 15.76176,-8.74284 1,-1.0359 1,-1.0359 -7.5,4.12945 -7.5,4.12945 -11.1903,6.18646 -11.1903,6.18647 0.49224,0.79645 0.49224,0.79646 -1.71599,-0.65848 -1.71598,-0.65849 0.71598,1.15849 0.71599,1.15848 -1.71599,-0.65848 -1.71598,-0.65849 0.81855,1.32445 0.81856,1.32445 -1.03507,-0.63971 -1.03508,-0.63971 -19.36943,10.12453 -19.36944,10.12453 -23.80037,11.37711 -23.80038,11.3771 -14.69962,6.59074 -14.69963,6.59075 -22,9.26345 -22,9.26344 -23,8.75576 -23,8.75575 -19.34252,6.86619 -19.34252,6.86619 -22.15748,7.08977 -22.15748,7.08977 -25.59847,7.37255 -25.59846,7.37255 -25.90154,6.48894 -25.90153,6.48893 -18,3.985 -18,3.985 -20.5,4.01323 -20.5,4.01324 -17.5,3.04304 -17.5,3.04304 -28,3.96031 -28,3.9603 -18.5,2.04514 -18.5,2.04514 -16,1.506 -16,1.506 -1.75,0.003 L 0,912 v -3.96974 -3.96974 L 4.75,902.59991 9.5,901.1393 4.75,901.06965 0,901 v -7.89159 -7.89159 L 2.25,884.67995 4.5,884.14308 15,883.37233 25.5,882.60157 21,881.90846 16.5,881.21535 8.25,881.75621 0,882.29706 V 441.14853 0 h 708 708 V 0.4939676 0.98793519 L 1407.3762,19.743968 1398.7525,38.5 1382.8714,70 l -15.8811,31.5 -7.4382,14.44595 -7.4382,14.44596 -3.1282,8.95816 -3.1282,8.95816 -9.0908,15.59589 -9.0908,15.59588 -8.5027,14 -8.5027,14 -12.5075,19.5 -12.5076,19.5 -11.3277,16.64914 L 1263,279.79828 v 0.99387 0.99387 l -1.4206,0.54514 -1.4206,0.54513 0.2852,1.81185 0.2851,1.81186 -2.9875,5.96512 -2.9876,5.96513 -10.2223,14.03487 -10.2222,14.03488 -5.6367,9.79783 -5.6366,9.79783 0.9819,-0.60685 0.9819,-0.60684 v 0.64072 0.64072 l -3.3678,4.16829 -3.3678,4.1683 -6.2737,10.5 -6.2738,10.5 -5.6929,9 -5.6929,9 -3.9155,6.34833 -3.9156,6.34833 -7,10.75697 -7,10.75697 -10.4381,15.12231 -10.4381,15.12232 -0.2182,1.48698 -0.2182,1.48698 -6.289,8.7854 -6.2889,8.78541 -2.431,3.5 -2.4309,3.5 3.0401,-3.16942 3.0401,-3.16943 0.4614,0.46133 0.4613,0.46134 12.7834,-14.29191 12.7834,-14.29191 1.9141,-2 1.9142,-2 -2.8228,4.36053 -2.8228,4.36054 -0.035,0.63946 -0.035,0.63947 -1.2497,2.25 -1.2498,2.25 h 0.4916 0.4915 l 13.347,-15.25 13.3471,-15.25 10.0168,-12 10.0168,-12 14.8106,-18.5 14.8106,-18.5 17.2167,-23 17.2168,-23 12.9711,-18.5 12.9711,-18.5 10.0206,-15 10.0207,-15 10.4946,-16.5 10.4946,-16.5 10.3092,-17 10.3093,-17 11.2016,-19.5 11.2016,-19.5 11.0403,-20.52795 11.0403,-20.52795 12.744,-25.47205 12.7439,-25.47205 9.2373,-20 9.2373,-20 4.2765,-9.75 4.2766,-9.75 H 1505.1428 1552 V 0.87342653 1.7468531 L 1541.1015,27.123427 1530.203,52.5 l -9.6894,21 -9.6893,21 -14.8019,29.57921 -14.8019,29.57921 -10.7654,19.92079 -10.7653,19.92079 -13.1952,23 -13.1952,23 -8.8195,14.5 -8.8196,14.5 -11.4487,18 -11.4487,18 -16.382,24.26101 -16.382,24.261 -11.6854,16.239 -11.6853,16.23899 -14.7728,19.61423 -14.7728,19.61423 -13.9798,17.57181 -13.9798,17.57181 -13.2455,15.81396 -13.2454,15.81396 -14.016,16 -14.016,16 -16.0031,17.5 -16.0031,17.5 -36.047,36.07043 -36.0469,36.07043 -18,16.45279 -18,16.45279 -16.1068,14.09732 -16.1068,14.09731 -17.3932,14.4495 -17.3932,14.4495 -15.5,12.36758 -15.5,12.36758 -25.5,19.0703 -25.5,19.07031 -16.5,11.58667 -16.5,11.58667 -22.5,15.01243 -22.5,15.01243 -17.5,10.98142 -17.5,10.98141 -21,12.51044 -21,12.51044 -21.5,11.99451 -21.5,11.99451 -22.37931,11.79318 -22.37932,11.79319 -21.62068,10.46775 -21.62069,10.46774 -18.5,8.51929 -18.5,8.51929 -27.5,11.74438 -27.5,11.74437 -22.5,8.73374 -22.5,8.7338 -15,5.5028 -15,5.5028 -28,9.4452 -28,9.4452 -26,7.8708 -26,7.8707 -22.5,6.1669 -22.5,6.1669 -22,5.3652 -22,5.3652 -18,3.9859 -18,3.9859 -17.5,3.5124 -17.5,3.5124 -19.5,3.4932 -19.5,3.4932 -22.5,3.5286 -22.5,3.5286 -23.5,3.0136 -23.5,3.0136 -24,2.4376 -24,2.4376 -15,1.1118 -15,1.1117 -2.7701633,0.2941 -2.77016325,0.2941 z"
       id="path238258"
       inkscape:label="shade2" /><path
       style="display:inline;fill:#070814;fill-opacity:1"
       d="M 0.18664152,621.75 0.5,618.5 l 8,-0.76048 8,-0.76048 20.5,-2.52826 20.5,-2.52827 22.5,-3.53782 22.5,-3.53782 20,-3.91456 20,-3.91456 1,0.067 1,0.067 -9.9952,3.43537 -9.99519,3.43537 -10.49018,2.0244 -10.49018,2.02439 -14.559932,3.96975 -14.559929,3.96974 -17.454695,2.45342 L 39.5,620.9176 l -18,2.0406 -18,2.0406 -1.8133585,6.1e-4 L -0.12671697,625 Z M 0,524.66488 v -86.33512 l 14.25,-1.71261 14.25,-1.71261 22.5,-3.52552 22.5,-3.52552 22.5,-4.47084 22.5,-4.47084 22.5,-5.48424 22.5,-5.48423 13,-3.56822 13,-3.56822 20.5,-6.32206 20.5,-6.32207 19,-6.654 19,-6.654 23.5,-9.34258 23.5,-9.34258 18.5,-8.1945 18.5,-8.19449 23,-11.30773 23,-11.30773 15.5,-8.43861 15.5,-8.43861 17,-9.96772 17,-9.96773 12.5,-7.83317 12.5,-7.83316 16.42844,-10.97698 16.42845,-10.97698 12.57155,-9.0247 L 546.5,224.6828 560.49644,214.0914 574.49288,203.5 591.49644,189.58079 608.5,175.66159 619.97817,165.58079 631.45635,155.5 644.97817,143.01979 658.5,130.53958 675.50216,113.51979 692.50432,96.5 705.89978,82 719.29524,67.5 733.46984,51 747.64444,34.5 761.38142,17.25 775.1184,0 H 865.5592 956 V 0.60047186 1.2009437 L 944.37398,18.850472 932.74796,36.5 l -12.05905,17 -12.05906,17 -10.30783,13.705265 -10.30783,13.705266 -11.81245,14.794739 -11.81245,14.79473 -11.87501,14 -11.875,14 -8.46954,9.5 -8.46954,9.5 -19.97522,21.23026 -19.97522,21.23026 -18.12488,17.28599 -18.12488,17.286 -11,10.08908 -11,10.08908 -15.5,13.28401 -15.5,13.28402 -17,13.65028 -17,13.65028 -16,12.02198 -16,12.02198 -13.5,9.53472 -13.5,9.53473 -18,11.97024 -18,11.97024 -17,10.54401 -17,10.54402 -16.80284,9.66121 -16.80283,9.66121 -18.19717,9.62051 -18.19716,9.62051 -8.37804,5.60769 -8.37804,5.60769 -1.42882,2.16126 -1.42883,2.16125 -7.9005,5.18683 -7.9005,5.18683 -25.71685,11.46854 -25.71684,11.46855 -23.57579,9.34589 -23.57579,9.34589 -22.5,7.99889 -22.5,7.99888 -21,6.56055 -21,6.56056 -19.5,5.40927 -19.5,5.40928 -19.5,4.71092 -19.5,4.71093 -5.28539,1.44606 -5.2854,1.44607 0.53106,0.85926 0.53105,0.85927 -11.24566,3.98272 -11.24566,3.98273 -18,5.5731 -18,5.5731 -17,4.64578 -17,4.64578 -5.662574,1.3689 -5.662574,1.36891 -16.837426,2.03597 L 15.5,609.00795 8.8073714,610.00397 2.1147428,611 H 1.0573714 0 Z m 687,-98.89181 1.5,-1.48134 16.49132,-12.39587 L 721.48264,399.5 734.49132,389.07977 747.5,378.65954 758.50678,369.45377 769.51355,360.248 783.50678,348.01475 797.5,335.78149 815.59797,318.91352 833.69595,302.04555 856.59797,278.74861 879.5,255.45168 896.1429,236.97584 912.7858,218.5 924.80327,204.31979 936.82074,190.13958 948.72129,175.31979 960.62185,160.5 973.13997,144 985.65809,127.5 996.65189,112 1007.6457,96.5 1020.6524,77 1033.659,57.5 1045.1337,39 1056.6084,20.5 1062.5542,10.267943 1068.5,0.03588616 1093.75,0.01794308 1119,0 l -0.01,0.75 -0.01,0.75 -4.3612,7.5 -4.3613,7.5 -15.6596,25.78454 -15.6596,25.784539 -7.6906,10.715461 -7.6906,10.71546 -13.4871,17.5 -13.4872,17.5 -10.4561,13 -10.4561,13 -11.5879,13.4927 -11.5878,13.4927 -19.65778,21.0073 -19.65778,21.0073 -13.29896,13 -13.29896,13 1.51368,-2 1.51369,-2 6.83816,-8 6.83816,-8 -53.3951,53.61078 -53.39511,53.61077 -16,14.43399 -16,14.43399 -8,6.96254 -8,6.96253 -12.5,8.31202 -12.5,8.31201 4,-3.55444 4,-3.55444 -0.87244,-0.0149 -0.87245,-0.0149 1.28266,-1.54551 1.28266,-1.54551 1.39172,0.53406 1.39173,0.53405 -0.55189,-0.89297 -0.55188,-0.89296 13.32946,-11.48949 13.32947,-11.4895 17.42048,-15.8268 L 835.5,326.55857 862.01193,300.02929 888.52386,273.5 904.01193,256.46237 919.5,239.42474 934.10272,222.46237 948.70544,205.5 l 14.4434,-18 14.4434,-18 12.35461,-16.5 12.35465,-16.5 1.0445,-1.5 1.0445,-1.5 -1.5445,1.5 -1.5444,1.5 -13.33917,17.5 -13.33917,17.5 -11.24521,14 -11.24521,14 -16.74338,16.5 -16.74339,16.5 6.39425,-7.5 6.39424,-7.5 -10.96728,10.505 L 909.5,238.51 898.00317,249.005 886.50634,259.5 852.00317,293.50634 817.5,327.51267 800,343.08518 l -17.5,15.57251 -14,11.86718 -14,11.86718 -16.80973,13.41082 -16.80973,13.41082 -10.69027,6.43605 -10.69027,6.43605 2.07143,-1.79289 2.07142,-1.7929 3.42858,-2.80783 3.42857,-2.80782 -1,0.4389 -1,0.4389 -6.5,3.91581 -6.5,3.91582 -5,2.83032 -5,2.83031 z M 0,202.5 V 0 h 366.05902 366.05901 l -0.73296,1.25 -0.73296,1.25 -8.56803,10.5 -8.56803,10.5 -11.37168,13 -11.37168,13 -18.83901,20.036883 -18.83901,20.036884 -20.79734,19.598813 -20.79733,19.59881 -9.50032,8.3643 -9.50033,8.36431 -11.99967,10.08509 -11.99968,10.08509 -14.65789,11.54912 -14.65789,11.54913 -18.33125,13.31094 -18.33125,13.31093 -23.01086,15.15967 -23.01086,15.15966 -15,8.9894 -15,8.9894 -18.40406,10.26083 -18.40405,10.26082 -26.59595,13.17367 -26.59594,13.17366 -15.5,6.84971 -15.5,6.84972 -17,6.93175 -17,6.93176 -23,8.34066 -23,8.34067 -17.5,5.50154 -17.5,5.50154 -11,3.20531 -11,3.20531 -25,6.48647 -25,6.48647 -12.58055,2.85959 -12.580545,2.85959 -19.419452,3.58224 -19.419453,3.58224 -24,3.46132 -24,3.46132 -3.25,0.003 L 0,405 Z"
       id="path238257"
       inkscape:label="shade1" /></g></svg>
