<svg viewBox="0 0 241 241" xmlns="http://www.w3.org/2000/svg" xmlns:svg="http://www.w3.org/2000/svg">
  <path
     style="fill:#000000;fill-rule:evenodd"
     d="m 113.98438,27.255862 c -27.119184,0 -50.073597,0.261601 -68.593755,2.609375 C 20.874257,32.997974 0.00781291,51.772648 0.00781291,86.464846 H 0 c 0,35.208474 1.8238549,61.557784 15.910157,85.289064 15.910576,27.12606 42.514692,41.99023 76.945312,41.99023 h 8.343751 c 42.25167,0 65.20549,-22.43151 76.68164,-40.166 4.95736,-7.82899 8.60581,-15.64759 10.95313,-23.47658 C 218.83052,147.49955 241,122.72169 241,92.462893 V 88.291017 C 241,55.684787 219.61709,32.990579 182.83789,29.3418 167.18913,27.779102 156.23605,27.255862 113.98438,27.255862 Z m -0.006,19.560547 c 42.25857,0 51.12621,0.523099 65.99025,1.824219 26.34821,3.125279 41.4746,15.911225 41.4746,40.166015 v 3.910156 c 0,21.652891 -17.99753,38.603511 -38.86523,38.603511 h -9.39063 l -1.56445,6.51954 c -2.08574,10.17628 -5.99548,18.25978 -10.42969,25.56445 -9.12883,14.34087 -25.56232,30.77343 -59.46875,30.77343 h -8.083983 c -25.824945,0 -48.516711,-8.86701 -61.033203,-32.08203 C 21.654098,142.01273 19.568371,120.36659 19.568371,86.720706 h -0.0078 c 0,-21.906901 8.612374,-34.162186 30.257812,-37.294922 15.387191,-2.347774 35.733316,-2.609375 64.160157,-2.609375 z m 65.74024,22.958984 c -4.17262,0 -6.51953,2.347732 -6.51953,5.480469 v 29.472658 c 0.003,3.12975 2.34955,5.47461 6.51953,5.47461 13.30146,0 20.60743,-7.56772 20.60743,-20.083988 0,-12.516262 -7.30597,-20.343749 -20.60743,-20.343749 z M 75.38673,71.601564 c -18.258351,0 -30.259765,14.862941 -30.259765,31.558596 h 0.0078 c 0,15.38742 8.605028,28.68909 19.558593,39.12695 7.304786,7.04195 18.782573,14.34835 26.603516,19.04297 2.347545,1.30215 4.694762,2.0879 7.304691,2.0879 3.132045,0 5.734355,-0.78575 7.828125,-2.0879 7.82783,-4.69462 19.29755,-12.00102 26.34179,-19.04297 11.21457,-10.43098 19.82031,-23.7323 19.82031,-39.12695 0,-16.695656 -12.51643,-31.558596 -30.51366,-31.558596 -10.69142,0 -17.9972,5.479698 -23.476565,13.039063 C 93.643863,77.074149 86.085934,71.601564 75.386719,71.601564 Z" />
</svg>
